<?xml version="1.0" encoding="UTF-8" standalone="no"?>
<!-- Created with Inkscape (http://www.inkscape.org/) -->

<svg
   xmlns:dc="http://purl.org/dc/elements/1.1/"
   xmlns:cc="http://creativecommons.org/ns#"
   xmlns:rdf="http://www.w3.org/1999/02/22-rdf-syntax-ns#"
   xmlns:svg="http://www.w3.org/2000/svg"
   xmlns="http://www.w3.org/2000/svg"
   xmlns:sodipodi="http://sodipodi.sourceforge.net/DTD/sodipodi-0.dtd"
   xmlns:inkscape="http://www.inkscape.org/namespaces/inkscape"
   width="518.75"
   height="518.75"
   id="svg4009"
   version="1.1"
   inkscape:version="0.48.5 r10040"
   sodipodi:docname="phone.svg">
  <defs
     id="defs4011" />
  <sodipodi:namedview
     id="base"
     pagecolor="#ffffff"
     bordercolor="#666666"
     borderopacity="1.0"
     inkscape:pageopacity="0.0"
     inkscape:pageshadow="2"
     inkscape:zoom="0.35"
     inkscape:cx="-115"
     inkscape:cy="520"
     inkscape:document-units="px"
     inkscape:current-layer="layer1"
     showgrid="false"
     inkscape:window-width="1920"
     inkscape:window-height="1018"
     inkscape:window-x="-8"
     inkscape:window-y="-8"
     inkscape:window-maximized="1" />
  <metadata
     id="metadata4014">
    <rdf:RDF>
      <cc:Work
         rdf:about="">
        <dc:format>image/svg+xml</dc:format>
        <dc:type
           rdf:resource="http://purl.org/dc/dcmitype/StillImage" />
        <dc:title />
      </cc:Work>
    </rdf:RDF>
  </metadata>
  <g
     inkscape:label="Layer 1"
     inkscape:groupmode="layer"
     id="layer1"
     transform="translate(0,-533.61218)">
    <path
       style="fill:#ffffff;stroke:none"
       d="m 365.425,624.62462 c 9.425,4.3 22.6375,14.5125 29.8375,25.2375 7.2,10.725 8.3875,21.975 8.2,32.4375 -0.1875,10.4625 -1.75,20.1375 -13.4,46.625 -11.65,26.4875 -33.375,69.775 -64.0625,108.725 -30.675,38.9375 -70.3125,73.525 -95.35,94.1 -25.025,20.575 -35.475,27.125 -46.55,30.3 -11.0875,3.1625 -22.8,2.9375 -35.5875,-2.9 -12.775,-5.825 -26.6,-17.275 -31.3,-29.15 -4.6875,-11.875 -0.2375,-24.1875 6.675,-35.775 6.925,-11.5875 16.3,-22.4625 26.2625,-29.95 9.9625,-7.4875 20.5125,-11.6125 29.05,-9.95 8.55,1.6625 15.1,9.1 19.2875,14.1125 4.175,5.025 5.975,7.6375 7.825,9.375 1.85,1.7375 3.7375,2.6 7.325,1.15 3.5875,-1.4625 8.8625,-5.2375 22.275,-15.2375 13.425,-10.0125 34.9875,-26.2375 52.775,-47.0125 17.775,-20.775 31.775,-46.0875 37.5875,-60.8125 5.8125,-14.725 3.4375,-18.8625 -2.7625,-22.6625 -6.2125,-3.8 -16.25,-7.275 -21.825,-12.35 -5.575,-5.0875 -6.675,-11.7625 -6.3875,-18.3625 0.2875,-6.6 1.9625,-13.125 5.1875,-21.0375 3.225,-7.925 8,-17.225 14.025,-26.2 6.025,-8.9625 13.3,-17.5875 18.5375,-22.825 5.25,-5.225 8.4375,-7.05 12.8625,-8.775 4.425,-1.725 10.0875,-3.35 19.5125,0.9375 z"
       id="path3920"
       inkscape:connector-curvature="0" />
  </g>
</svg>
