<?xml version="1.0" encoding="UTF-8" standalone="no"?>
<!-- Created with Inkscape (http://www.inkscape.org/) -->

<svg
   xmlns:dc="http://purl.org/dc/elements/1.1/"
   xmlns:cc="http://creativecommons.org/ns#"
   xmlns:rdf="http://www.w3.org/1999/02/22-rdf-syntax-ns#"
   xmlns:svg="http://www.w3.org/2000/svg"
   xmlns="http://www.w3.org/2000/svg"
   xmlns:sodipodi="http://sodipodi.sourceforge.net/DTD/sodipodi-0.dtd"
   xmlns:inkscape="http://www.inkscape.org/namespaces/inkscape"
   width="518.75"
   height="518.75"
   id="svg4009"
   version="1.1"
   inkscape:version="0.48.5 r10040"
   sodipodi:docname="VK.svg">
  <defs
     id="defs4011" />
  <sodipodi:namedview
     id="base"
     pagecolor="#ffffff"
     bordercolor="#666666"
     borderopacity="1.0"
     inkscape:pageopacity="0.0"
     inkscape:pageshadow="2"
     inkscape:zoom="0.35"
     inkscape:cx="-115"
     inkscape:cy="520"
     inkscape:document-units="px"
     inkscape:current-layer="layer1"
     showgrid="false"
     inkscape:window-width="1920"
     inkscape:window-height="1018"
     inkscape:window-x="-8"
     inkscape:window-y="-8"
     inkscape:window-maximized="1" />
  <metadata
     id="metadata4014">
    <rdf:RDF>
      <cc:Work
         rdf:about="">
        <dc:format>image/svg+xml</dc:format>
        <dc:type
           rdf:resource="http://purl.org/dc/dcmitype/StillImage" />
        <dc:title />
      </cc:Work>
    </rdf:RDF>
  </metadata>
  <g
     inkscape:label="Layer 1"
     inkscape:groupmode="layer"
     id="layer1"
     transform="translate(0,-533.61218)">
    <path
       style="fill:#000000;stroke:none;fill-opacity:1"
       d="m 155.05375,652.11211 123.125,0 c 40.5125,0 75.0125,19.8375 74.975,59.975 -0.0375,33.5125 -12.175,46.55 -37.1,61.2875 2.1375,1.7625 16.4125,6.025 21.2125,8.3875 7.6875,3.775 12.2,7.6125 17.25,12.75 14.15,14.375 16.7875,27.525 16.7875,50.075 0,52.3375 -50.625,78.65 -99.375,78.65 l -117.3875,0 0.5125,-271.125 z m 66.9125,71.225 -0.0125,35.2125 c 31.7125,0 61.5125,4.175 61.5125,-30.2125 0,-31.8375 -33.7125,-26.5875 -61.5375,-26.5875 l 0.0375,21.5875 z m -0.025,149.9875 c 34.75,0 77.6875,5.725 78.4375,-33.725 0.7875,-41.15 -44.1,-33.725 -78.4125,-33.725 l -0.025,67.45 z"
       id="path3782"
       inkscape:connector-curvature="0" />
  </g>
</svg>
